<mxfile host="Electron" agent="Mozilla/5.0 (Windows NT 10.0; Win64; x64) AppleWebKit/537.36 (KHTML, like Gecko) draw.io/27.0.5 Chrome/134.0.6998.205 Electron/35.3.0 Safari/537.36" version="27.0.5">
  <diagram name="Page-1" id="-6IOm_xPbFYxTS1Bhe0i">
    <mxGraphModel dx="856" dy="561" grid="1" gridSize="10" guides="1" tooltips="1" connect="1" arrows="1" fold="1" page="1" pageScale="1" pageWidth="827" pageHeight="1169" math="0" shadow="0">
      <root>
        <mxCell id="0" />
        <mxCell id="1" parent="0" />
        <mxCell id="m_MEU9xf3fE2W77EgAuO-1" value="&lt;b&gt;&lt;font style=&quot;font-size: 18px;&quot;&gt;Data Flow Diagram&lt;/font&gt;&lt;/b&gt;" style="text;html=1;align=center;verticalAlign=middle;whiteSpace=wrap;rounded=0;" parent="1" vertex="1">
          <mxGeometry x="30" y="10" width="170" height="30" as="geometry" />
        </mxCell>
        <mxCell id="m_MEU9xf3fE2W77EgAuO-2" value="" style="rounded=0;whiteSpace=wrap;html=1;fillColor=none;dashed=1;" parent="1" vertex="1">
          <mxGeometry x="40" y="80" width="120" height="400" as="geometry" />
        </mxCell>
        <mxCell id="m_MEU9xf3fE2W77EgAuO-4" value="&lt;font style=&quot;font-size: 19px;&quot;&gt;Sources&lt;/font&gt;" style="rounded=1;whiteSpace=wrap;html=1;fillColor=default;dashed=1;" parent="1" vertex="1">
          <mxGeometry x="50" y="60" width="100" height="30" as="geometry" />
        </mxCell>
        <mxCell id="m_MEU9xf3fE2W77EgAuO-16" style="edgeStyle=orthogonalEdgeStyle;rounded=0;orthogonalLoop=1;jettySize=auto;html=1;entryX=0;entryY=0.5;entryDx=0;entryDy=0;" parent="1" source="m_MEU9xf3fE2W77EgAuO-5" target="m_MEU9xf3fE2W77EgAuO-12" edge="1">
          <mxGeometry relative="1" as="geometry" />
        </mxCell>
        <mxCell id="m_MEU9xf3fE2W77EgAuO-17" style="edgeStyle=orthogonalEdgeStyle;rounded=0;orthogonalLoop=1;jettySize=auto;html=1;entryX=0;entryY=0.5;entryDx=0;entryDy=0;" parent="1" source="m_MEU9xf3fE2W77EgAuO-5" target="m_MEU9xf3fE2W77EgAuO-10" edge="1">
          <mxGeometry relative="1" as="geometry" />
        </mxCell>
        <mxCell id="m_MEU9xf3fE2W77EgAuO-18" style="edgeStyle=orthogonalEdgeStyle;rounded=0;orthogonalLoop=1;jettySize=auto;html=1;entryX=0;entryY=0.5;entryDx=0;entryDy=0;" parent="1" source="m_MEU9xf3fE2W77EgAuO-5" target="m_MEU9xf3fE2W77EgAuO-11" edge="1">
          <mxGeometry relative="1" as="geometry" />
        </mxCell>
        <mxCell id="m_MEU9xf3fE2W77EgAuO-5" value="&lt;font style=&quot;font-size: 17px;&quot;&gt;CRM&lt;/font&gt;" style="image;aspect=fixed;html=1;points=[];align=center;fontSize=12;image=img/lib/azure2/general/Folder_Blank.svg;" parent="1" vertex="1">
          <mxGeometry x="60" y="147" width="69" height="56.00000000000001" as="geometry" />
        </mxCell>
        <mxCell id="m_MEU9xf3fE2W77EgAuO-19" style="edgeStyle=orthogonalEdgeStyle;rounded=0;orthogonalLoop=1;jettySize=auto;html=1;entryX=0;entryY=0.5;entryDx=0;entryDy=0;" parent="1" source="m_MEU9xf3fE2W77EgAuO-7" target="m_MEU9xf3fE2W77EgAuO-14" edge="1">
          <mxGeometry relative="1" as="geometry" />
        </mxCell>
        <mxCell id="m_MEU9xf3fE2W77EgAuO-20" style="edgeStyle=orthogonalEdgeStyle;rounded=0;orthogonalLoop=1;jettySize=auto;html=1;entryX=0;entryY=0.5;entryDx=0;entryDy=0;" parent="1" source="m_MEU9xf3fE2W77EgAuO-7" target="m_MEU9xf3fE2W77EgAuO-13" edge="1">
          <mxGeometry relative="1" as="geometry" />
        </mxCell>
        <mxCell id="m_MEU9xf3fE2W77EgAuO-21" style="edgeStyle=orthogonalEdgeStyle;rounded=0;orthogonalLoop=1;jettySize=auto;html=1;entryX=0;entryY=0.5;entryDx=0;entryDy=0;" parent="1" source="m_MEU9xf3fE2W77EgAuO-7" target="m_MEU9xf3fE2W77EgAuO-15" edge="1">
          <mxGeometry relative="1" as="geometry" />
        </mxCell>
        <mxCell id="m_MEU9xf3fE2W77EgAuO-7" value="&lt;font style=&quot;font-size: 16px;&quot;&gt;ERP&lt;/font&gt;" style="image;aspect=fixed;html=1;points=[];align=center;fontSize=12;image=img/lib/azure2/general/Folder_Blank.svg;" parent="1" vertex="1">
          <mxGeometry x="60" y="367" width="69" height="56.00000000000001" as="geometry" />
        </mxCell>
        <mxCell id="m_MEU9xf3fE2W77EgAuO-8" value="" style="rounded=1;whiteSpace=wrap;html=1;fillColor=#ffe6cc;strokeColor=#d79b00;fillStyle=hatch;dashed=1;" parent="1" vertex="1">
          <mxGeometry x="240" y="80" width="150" height="400" as="geometry" />
        </mxCell>
        <mxCell id="m_MEU9xf3fE2W77EgAuO-9" value="Bronze Layer" style="rounded=1;whiteSpace=wrap;html=1;" parent="1" vertex="1">
          <mxGeometry x="250" y="70" width="120" height="30" as="geometry" />
        </mxCell>
        <mxCell id="76Vs3CBuw-tFJrFbDH-r-9" style="edgeStyle=orthogonalEdgeStyle;rounded=0;orthogonalLoop=1;jettySize=auto;html=1;entryX=0;entryY=0.5;entryDx=0;entryDy=0;" parent="1" source="m_MEU9xf3fE2W77EgAuO-10" target="76Vs3CBuw-tFJrFbDH-r-3" edge="1">
          <mxGeometry relative="1" as="geometry" />
        </mxCell>
        <mxCell id="m_MEU9xf3fE2W77EgAuO-10" value="crm_cust_info" style="rounded=1;whiteSpace=wrap;html=1;fillColor=#f5f5f5;strokeColor=#666666;fontColor=#333333;" parent="1" vertex="1">
          <mxGeometry x="255" y="110" width="120" height="30" as="geometry" />
        </mxCell>
        <mxCell id="76Vs3CBuw-tFJrFbDH-r-11" style="edgeStyle=orthogonalEdgeStyle;rounded=0;orthogonalLoop=1;jettySize=auto;html=1;exitX=1;exitY=0.5;exitDx=0;exitDy=0;entryX=0;entryY=0.5;entryDx=0;entryDy=0;" parent="1" source="m_MEU9xf3fE2W77EgAuO-11" target="76Vs3CBuw-tFJrFbDH-r-4" edge="1">
          <mxGeometry relative="1" as="geometry" />
        </mxCell>
        <mxCell id="m_MEU9xf3fE2W77EgAuO-11" value="crm_sales_details" style="rounded=1;whiteSpace=wrap;html=1;fillColor=#f5f5f5;strokeColor=#666666;fontColor=#333333;" parent="1" vertex="1">
          <mxGeometry x="255" y="210" width="120" height="30" as="geometry" />
        </mxCell>
        <mxCell id="76Vs3CBuw-tFJrFbDH-r-10" style="edgeStyle=orthogonalEdgeStyle;rounded=0;orthogonalLoop=1;jettySize=auto;html=1;entryX=0;entryY=0.5;entryDx=0;entryDy=0;" parent="1" source="m_MEU9xf3fE2W77EgAuO-12" target="76Vs3CBuw-tFJrFbDH-r-5" edge="1">
          <mxGeometry relative="1" as="geometry" />
        </mxCell>
        <mxCell id="m_MEU9xf3fE2W77EgAuO-12" value="crm_prd_info" style="rounded=1;whiteSpace=wrap;html=1;fillColor=#f5f5f5;strokeColor=#666666;fontColor=#333333;" parent="1" vertex="1">
          <mxGeometry x="255" y="160" width="120" height="30" as="geometry" />
        </mxCell>
        <mxCell id="76Vs3CBuw-tFJrFbDH-r-12" style="edgeStyle=orthogonalEdgeStyle;rounded=0;orthogonalLoop=1;jettySize=auto;html=1;exitX=1;exitY=0.5;exitDx=0;exitDy=0;entryX=0;entryY=0.5;entryDx=0;entryDy=0;" parent="1" source="m_MEU9xf3fE2W77EgAuO-13" target="76Vs3CBuw-tFJrFbDH-r-6" edge="1">
          <mxGeometry relative="1" as="geometry" />
        </mxCell>
        <mxCell id="m_MEU9xf3fE2W77EgAuO-13" value="erp_cust_az12" style="rounded=1;whiteSpace=wrap;html=1;fillColor=#f5f5f5;strokeColor=#666666;fontColor=#333333;" parent="1" vertex="1">
          <mxGeometry x="255" y="340" width="120" height="30" as="geometry" />
        </mxCell>
        <mxCell id="76Vs3CBuw-tFJrFbDH-r-13" style="edgeStyle=orthogonalEdgeStyle;rounded=0;orthogonalLoop=1;jettySize=auto;html=1;exitX=1;exitY=0.5;exitDx=0;exitDy=0;entryX=0;entryY=0.5;entryDx=0;entryDy=0;" parent="1" source="m_MEU9xf3fE2W77EgAuO-14" target="76Vs3CBuw-tFJrFbDH-r-7" edge="1">
          <mxGeometry relative="1" as="geometry" />
        </mxCell>
        <mxCell id="m_MEU9xf3fE2W77EgAuO-14" value="erp_loc_a101" style="rounded=1;whiteSpace=wrap;html=1;fillColor=#f5f5f5;strokeColor=#666666;fontColor=#333333;" parent="1" vertex="1">
          <mxGeometry x="255" y="380" width="120" height="30" as="geometry" />
        </mxCell>
        <mxCell id="76Vs3CBuw-tFJrFbDH-r-14" style="edgeStyle=orthogonalEdgeStyle;rounded=0;orthogonalLoop=1;jettySize=auto;html=1;exitX=1;exitY=0.5;exitDx=0;exitDy=0;entryX=0;entryY=0.5;entryDx=0;entryDy=0;" parent="1" source="m_MEU9xf3fE2W77EgAuO-15" target="76Vs3CBuw-tFJrFbDH-r-8" edge="1">
          <mxGeometry relative="1" as="geometry" />
        </mxCell>
        <mxCell id="m_MEU9xf3fE2W77EgAuO-15" value="erp_px_cat_g1v2" style="rounded=1;whiteSpace=wrap;html=1;fillColor=#f5f5f5;strokeColor=#666666;fontColor=#333333;" parent="1" vertex="1">
          <mxGeometry x="255" y="420" width="120" height="30" as="geometry" />
        </mxCell>
        <mxCell id="76Vs3CBuw-tFJrFbDH-r-1" value="" style="rounded=1;whiteSpace=wrap;html=1;fillColor=#b1ddf0;strokeColor=#10739e;fillStyle=hatch;dashed=1;" parent="1" vertex="1">
          <mxGeometry x="490" y="80" width="150" height="400" as="geometry" />
        </mxCell>
        <mxCell id="76Vs3CBuw-tFJrFbDH-r-2" value="Silver Layer" style="rounded=1;whiteSpace=wrap;html=1;" parent="1" vertex="1">
          <mxGeometry x="500" y="70" width="120" height="30" as="geometry" />
        </mxCell>
        <mxCell id="76Vs3CBuw-tFJrFbDH-r-3" value="crm_sales_details" style="rounded=1;whiteSpace=wrap;html=1;fillColor=#f5f5f5;strokeColor=#666666;fontColor=#333333;" parent="1" vertex="1">
          <mxGeometry x="505" y="110" width="120" height="30" as="geometry" />
        </mxCell>
        <mxCell id="76Vs3CBuw-tFJrFbDH-r-4" value="crm_prd_info" style="rounded=1;whiteSpace=wrap;html=1;fillColor=#f5f5f5;strokeColor=#666666;fontColor=#333333;" parent="1" vertex="1">
          <mxGeometry x="505" y="210" width="120" height="30" as="geometry" />
        </mxCell>
        <mxCell id="76Vs3CBuw-tFJrFbDH-r-5" value="crm_cust_info" style="rounded=1;whiteSpace=wrap;html=1;fillColor=#f5f5f5;strokeColor=#666666;fontColor=#333333;" parent="1" vertex="1">
          <mxGeometry x="505" y="160" width="120" height="30" as="geometry" />
        </mxCell>
        <mxCell id="76Vs3CBuw-tFJrFbDH-r-6" value="erp_cust_az12" style="rounded=1;whiteSpace=wrap;html=1;fillColor=#f5f5f5;strokeColor=#666666;fontColor=#333333;" parent="1" vertex="1">
          <mxGeometry x="505" y="340" width="120" height="30" as="geometry" />
        </mxCell>
        <mxCell id="76Vs3CBuw-tFJrFbDH-r-7" value="erp_loc_a101" style="rounded=1;whiteSpace=wrap;html=1;fillColor=#f5f5f5;strokeColor=#666666;fontColor=#333333;" parent="1" vertex="1">
          <mxGeometry x="505" y="380" width="120" height="30" as="geometry" />
        </mxCell>
        <mxCell id="76Vs3CBuw-tFJrFbDH-r-8" value="erp_px_cat_g1v2" style="rounded=1;whiteSpace=wrap;html=1;fillColor=#f5f5f5;strokeColor=#666666;fontColor=#333333;" parent="1" vertex="1">
          <mxGeometry x="505" y="420" width="120" height="30" as="geometry" />
        </mxCell>
        <mxCell id="HBHvaX0lQpPoDTujJ8FI-1" value="" style="rounded=1;whiteSpace=wrap;html=1;fillColor=#b1ddf0;strokeColor=#10739e;fillStyle=hatch;dashed=1;" vertex="1" parent="1">
          <mxGeometry x="720" y="80" width="150" height="400" as="geometry" />
        </mxCell>
        <mxCell id="HBHvaX0lQpPoDTujJ8FI-2" value="Silver Layer" style="rounded=1;whiteSpace=wrap;html=1;" vertex="1" parent="1">
          <mxGeometry x="735" y="60" width="120" height="30" as="geometry" />
        </mxCell>
        <mxCell id="HBHvaX0lQpPoDTujJ8FI-3" value="dim_customers" style="rounded=1;whiteSpace=wrap;html=1;fillColor=#f5f5f5;strokeColor=#666666;fontColor=#333333;" vertex="1" parent="1">
          <mxGeometry x="735" y="240" width="120" height="30" as="geometry" />
        </mxCell>
        <mxCell id="HBHvaX0lQpPoDTujJ8FI-4" value="fact_sales" style="rounded=1;whiteSpace=wrap;html=1;fillColor=#f5f5f5;strokeColor=#666666;fontColor=#333333;" vertex="1" parent="1">
          <mxGeometry x="735" y="140" width="120" height="30" as="geometry" />
        </mxCell>
        <mxCell id="HBHvaX0lQpPoDTujJ8FI-5" value="dim_products" style="rounded=1;whiteSpace=wrap;html=1;fillColor=#f5f5f5;strokeColor=#666666;fontColor=#333333;" vertex="1" parent="1">
          <mxGeometry x="735" y="330" width="120" height="30" as="geometry" />
        </mxCell>
        <mxCell id="HBHvaX0lQpPoDTujJ8FI-9" value="" style="endArrow=classic;html=1;rounded=0;exitX=1;exitY=0.5;exitDx=0;exitDy=0;entryX=0;entryY=0.25;entryDx=0;entryDy=0;" edge="1" parent="1" source="76Vs3CBuw-tFJrFbDH-r-3" target="HBHvaX0lQpPoDTujJ8FI-4">
          <mxGeometry width="50" height="50" relative="1" as="geometry">
            <mxPoint x="640" y="130" as="sourcePoint" />
            <mxPoint x="690" y="80" as="targetPoint" />
          </mxGeometry>
        </mxCell>
        <mxCell id="HBHvaX0lQpPoDTujJ8FI-18" value="" style="endArrow=classic;html=1;rounded=0;exitX=1;exitY=0.5;exitDx=0;exitDy=0;entryX=0;entryY=0.5;entryDx=0;entryDy=0;" edge="1" parent="1" source="76Vs3CBuw-tFJrFbDH-r-5" target="HBHvaX0lQpPoDTujJ8FI-3">
          <mxGeometry width="50" height="50" relative="1" as="geometry">
            <mxPoint x="660" y="210" as="sourcePoint" />
            <mxPoint x="710" y="160" as="targetPoint" />
          </mxGeometry>
        </mxCell>
        <mxCell id="HBHvaX0lQpPoDTujJ8FI-19" value="" style="endArrow=classic;html=1;rounded=0;exitX=1;exitY=0.75;exitDx=0;exitDy=0;entryX=0;entryY=0.5;entryDx=0;entryDy=0;" edge="1" parent="1" source="76Vs3CBuw-tFJrFbDH-r-4" target="HBHvaX0lQpPoDTujJ8FI-5">
          <mxGeometry width="50" height="50" relative="1" as="geometry">
            <mxPoint x="660" y="305" as="sourcePoint" />
            <mxPoint x="710" y="255" as="targetPoint" />
            <Array as="points">
              <mxPoint x="680" y="285" />
            </Array>
          </mxGeometry>
        </mxCell>
        <mxCell id="HBHvaX0lQpPoDTujJ8FI-20" value="" style="endArrow=classic;html=1;rounded=0;entryX=0;entryY=0.5;entryDx=0;entryDy=0;" edge="1" parent="1" target="HBHvaX0lQpPoDTujJ8FI-3">
          <mxGeometry width="50" height="50" relative="1" as="geometry">
            <mxPoint x="625" y="360" as="sourcePoint" />
            <mxPoint x="675" y="310" as="targetPoint" />
          </mxGeometry>
        </mxCell>
        <mxCell id="HBHvaX0lQpPoDTujJ8FI-21" value="" style="endArrow=classic;html=1;rounded=0;entryX=0;entryY=0.75;entryDx=0;entryDy=0;" edge="1" parent="1" target="HBHvaX0lQpPoDTujJ8FI-3">
          <mxGeometry width="50" height="50" relative="1" as="geometry">
            <mxPoint x="625" y="390" as="sourcePoint" />
            <mxPoint x="675" y="340" as="targetPoint" />
          </mxGeometry>
        </mxCell>
        <mxCell id="HBHvaX0lQpPoDTujJ8FI-22" value="" style="endArrow=classic;html=1;rounded=0;exitX=1;exitY=0.5;exitDx=0;exitDy=0;entryX=0;entryY=0.5;entryDx=0;entryDy=0;" edge="1" parent="1" source="76Vs3CBuw-tFJrFbDH-r-8" target="HBHvaX0lQpPoDTujJ8FI-5">
          <mxGeometry width="50" height="50" relative="1" as="geometry">
            <mxPoint x="650" y="440.8" as="sourcePoint" />
            <mxPoint x="710" y="360" as="targetPoint" />
            <Array as="points">
              <mxPoint x="660" y="401" />
            </Array>
          </mxGeometry>
        </mxCell>
      </root>
    </mxGraphModel>
  </diagram>
</mxfile>
